<mxfile host="app.diagrams.net" modified="2021-09-16T08:05:52.833Z" agent="5.0 (Windows)" etag="FjWn4LYZEOd5PRFygOA1" version="15.2.7" type="github">
  <diagram id="kgpKYQtTHZ0yAKxKKP6v" name="Page-1">
    <mxGraphModel dx="1296" dy="706" grid="1" gridSize="10" guides="1" tooltips="1" connect="1" arrows="1" fold="1" page="1" pageScale="1" pageWidth="850" pageHeight="1100" math="0" shadow="0">
      <root>
        <mxCell id="0" />
        <mxCell id="1" parent="0" />
        <mxCell id="3nuBFxr9cyL0pnOWT2aG-1" value="Разработчик" style="shape=umlLifeline;perimeter=lifelinePerimeter;container=1;collapsible=0;recursiveResize=0;shadow=0;strokeWidth=1;fillColor=#fff2cc;strokeColor=#d6b656;fontStyle=0;fontSize=14;" parent="1" vertex="1">
          <mxGeometry x="20" y="80" width="100" height="560" as="geometry" />
        </mxCell>
        <mxCell id="3nuBFxr9cyL0pnOWT2aG-2" value="" style="points=[];perimeter=orthogonalPerimeter;shadow=0;strokeWidth=1;fillColor=#fff2cc;strokeColor=#d6b656;fontStyle=0;fontSize=14;" parent="3nuBFxr9cyL0pnOWT2aG-1" vertex="1">
          <mxGeometry x="45" y="60" width="10" height="380" as="geometry" />
        </mxCell>
        <mxCell id="3nuBFxr9cyL0pnOWT2aG-5" value="Специалист&#xa;ИБ" style="shape=umlLifeline;perimeter=lifelinePerimeter;container=1;collapsible=0;recursiveResize=0;shadow=0;strokeWidth=1;fillColor=#d5e8d4;strokeColor=#82b366;fontStyle=0;fontSize=14;" parent="1" vertex="1">
          <mxGeometry x="300" y="80" width="100" height="560" as="geometry" />
        </mxCell>
        <mxCell id="3nuBFxr9cyL0pnOWT2aG-6" value="" style="points=[];perimeter=orthogonalPerimeter;shadow=0;strokeWidth=1;fillColor=#d5e8d4;strokeColor=#82b366;fontStyle=0;fontSize=14;" parent="3nuBFxr9cyL0pnOWT2aG-5" vertex="1">
          <mxGeometry x="45" y="80" width="10" height="50" as="geometry" />
        </mxCell>
        <mxCell id="S2c5dp2w3q7TUs9QFYM--36" value="" style="points=[];perimeter=orthogonalPerimeter;shadow=0;strokeWidth=1;fillColor=#d5e8d4;strokeColor=#82b366;fontStyle=0;fontSize=14;" parent="3nuBFxr9cyL0pnOWT2aG-5" vertex="1">
          <mxGeometry x="45" y="230" width="10" height="30" as="geometry" />
        </mxCell>
        <mxCell id="3nuBFxr9cyL0pnOWT2aG-8" value="Запрос" style="verticalAlign=bottom;endArrow=block;shadow=0;strokeWidth=1;labelBackgroundColor=#FFFFFF;labelBorderColor=none;fontStyle=0;fontSize=14;" parent="1" source="3nuBFxr9cyL0pnOWT2aG-2" target="ON78CiNrO1nDwPZ4DCJo-1" edge="1">
          <mxGeometry relative="1" as="geometry">
            <mxPoint x="275" y="160" as="sourcePoint" />
            <mxPoint x="200" y="150" as="targetPoint" />
            <Array as="points">
              <mxPoint x="100" y="150" />
            </Array>
          </mxGeometry>
        </mxCell>
        <mxCell id="S2c5dp2w3q7TUs9QFYM--2" value="Test" style="shape=umlLifeline;perimeter=lifelinePerimeter;container=1;collapsible=0;recursiveResize=0;shadow=0;strokeWidth=1;fillColor=#f5f5f5;strokeColor=#666666;fontColor=#333333;fontStyle=0;fontSize=14;" parent="1" vertex="1">
          <mxGeometry x="580" y="80" width="100" height="560" as="geometry" />
        </mxCell>
        <mxCell id="S2c5dp2w3q7TUs9QFYM--7" value="" style="points=[];perimeter=orthogonalPerimeter;shadow=0;strokeWidth=1;fillColor=#f5f5f5;strokeColor=#666666;fontColor=#333333;fontStyle=0;fontSize=14;" parent="S2c5dp2w3q7TUs9QFYM--2" vertex="1">
          <mxGeometry x="45" y="290" width="10" height="30" as="geometry" />
        </mxCell>
        <mxCell id="S2c5dp2w3q7TUs9QFYM--55" value="" style="points=[];perimeter=orthogonalPerimeter;shadow=0;strokeWidth=1;fillColor=#f5f5f5;strokeColor=#666666;fontColor=#333333;fontStyle=0;fontSize=14;" parent="S2c5dp2w3q7TUs9QFYM--2" vertex="1">
          <mxGeometry x="45" y="470" width="10" height="30" as="geometry" />
        </mxCell>
        <mxCell id="S2c5dp2w3q7TUs9QFYM--4" value="Jenkins" style="shape=umlLifeline;perimeter=lifelinePerimeter;container=1;collapsible=0;recursiveResize=0;shadow=0;strokeWidth=1;fillColor=#e1d5e7;strokeColor=#9673a6;fontStyle=0;fontSize=14;" parent="1" vertex="1">
          <mxGeometry x="440" y="80" width="100" height="560" as="geometry" />
        </mxCell>
        <mxCell id="S2c5dp2w3q7TUs9QFYM--5" value="" style="points=[];perimeter=orthogonalPerimeter;shadow=0;strokeWidth=1;fillColor=#e1d5e7;strokeColor=#9673a6;fontStyle=0;fontSize=14;" parent="S2c5dp2w3q7TUs9QFYM--4" vertex="1">
          <mxGeometry x="45" y="90" width="10" height="30" as="geometry" />
        </mxCell>
        <mxCell id="S2c5dp2w3q7TUs9QFYM--35" value="" style="points=[];perimeter=orthogonalPerimeter;shadow=0;strokeWidth=1;fillColor=#e1d5e7;strokeColor=#9673a6;fontStyle=0;fontSize=14;" parent="S2c5dp2w3q7TUs9QFYM--4" vertex="1">
          <mxGeometry x="45" y="200" width="10" height="30" as="geometry" />
        </mxCell>
        <mxCell id="S2c5dp2w3q7TUs9QFYM--6" value="PaaS" style="shape=umlLifeline;perimeter=lifelinePerimeter;container=1;collapsible=0;recursiveResize=0;shadow=0;strokeWidth=1;fillColor=#d5e8d4;strokeColor=#82b366;fontStyle=0;fontSize=14;" parent="1" vertex="1">
          <mxGeometry x="160" y="80" width="100" height="560" as="geometry" />
        </mxCell>
        <mxCell id="S2c5dp2w3q7TUs9QFYM--42" value="" style="points=[];perimeter=orthogonalPerimeter;shadow=0;strokeWidth=1;fillColor=#d5e8d4;strokeColor=#82b366;fontStyle=0;fontSize=14;" parent="S2c5dp2w3q7TUs9QFYM--6" vertex="1">
          <mxGeometry x="45" y="440" width="10" height="30" as="geometry" />
        </mxCell>
        <mxCell id="ON78CiNrO1nDwPZ4DCJo-1" value="" style="points=[];perimeter=orthogonalPerimeter;shadow=0;strokeWidth=1;fillColor=#d5e8d4;strokeColor=#82b366;fontStyle=0;fontSize=14;" vertex="1" parent="S2c5dp2w3q7TUs9QFYM--6">
          <mxGeometry x="45" y="70" width="10" height="70" as="geometry" />
        </mxCell>
        <mxCell id="S2c5dp2w3q7TUs9QFYM--31" value="Ответ" style="verticalAlign=bottom;endArrow=block;shadow=0;strokeWidth=1;labelBackgroundColor=#FFFFFF;labelBorderColor=none;dashed=1;fontStyle=0;fontSize=14;" parent="1" source="S2c5dp2w3q7TUs9QFYM--5" target="3nuBFxr9cyL0pnOWT2aG-6" edge="1">
          <mxGeometry relative="1" as="geometry">
            <mxPoint x="240" y="240" as="sourcePoint" />
            <mxPoint x="370" y="240" as="targetPoint" />
            <Array as="points">
              <mxPoint x="400" y="200" />
            </Array>
          </mxGeometry>
        </mxCell>
        <mxCell id="S2c5dp2w3q7TUs9QFYM--32" value="Ответ" style="verticalAlign=bottom;endArrow=block;shadow=0;strokeWidth=1;labelBackgroundColor=#FFFFFF;labelBorderColor=none;dashed=1;fontStyle=0;fontSize=14;" parent="1" source="3nuBFxr9cyL0pnOWT2aG-6" target="ON78CiNrO1nDwPZ4DCJo-1" edge="1">
          <mxGeometry relative="1" as="geometry">
            <mxPoint x="355" y="220" as="sourcePoint" />
            <mxPoint x="225" y="220" as="targetPoint" />
            <Array as="points">
              <mxPoint x="320" y="210" />
              <mxPoint x="250" y="210" />
            </Array>
          </mxGeometry>
        </mxCell>
        <mxCell id="S2c5dp2w3q7TUs9QFYM--34" value="Запрос" style="verticalAlign=bottom;endArrow=block;shadow=0;strokeWidth=1;labelBackgroundColor=#FFFFFF;labelBorderColor=none;fontStyle=0;fontSize=14;" parent="1" target="S2c5dp2w3q7TUs9QFYM--35" edge="1">
          <mxGeometry relative="1" as="geometry">
            <mxPoint x="75" y="280" as="sourcePoint" />
            <mxPoint x="345" y="280" as="targetPoint" />
          </mxGeometry>
        </mxCell>
        <mxCell id="S2c5dp2w3q7TUs9QFYM--37" value="Ответ" style="verticalAlign=bottom;endArrow=block;shadow=0;strokeWidth=1;labelBackgroundColor=#FFFFFF;labelBorderColor=none;dashed=1;fontStyle=0;fontSize=14;" parent="1" edge="1">
          <mxGeometry relative="1" as="geometry">
            <mxPoint x="485" y="310" as="sourcePoint" />
            <mxPoint x="355" y="310" as="targetPoint" />
            <Array as="points">
              <mxPoint x="420" y="310" />
              <mxPoint x="370" y="310" />
            </Array>
          </mxGeometry>
        </mxCell>
        <mxCell id="S2c5dp2w3q7TUs9QFYM--38" value="Ответ" style="verticalAlign=bottom;endArrow=block;shadow=0;strokeWidth=1;labelBackgroundColor=#FFFFFF;labelBorderColor=none;dashed=1;fontStyle=0;fontSize=14;" parent="1" target="3nuBFxr9cyL0pnOWT2aG-2" edge="1" source="S2c5dp2w3q7TUs9QFYM--36">
          <mxGeometry relative="1" as="geometry">
            <mxPoint x="205" y="340" as="sourcePoint" />
            <mxPoint x="75" y="340" as="targetPoint" />
            <Array as="points">
              <mxPoint x="110" y="340" />
            </Array>
          </mxGeometry>
        </mxCell>
        <mxCell id="S2c5dp2w3q7TUs9QFYM--39" value="Запрос" style="verticalAlign=bottom;endArrow=block;shadow=0;strokeWidth=1;labelBackgroundColor=#FFFFFF;labelBorderColor=none;fontStyle=0;fontSize=14;" parent="1" source="3nuBFxr9cyL0pnOWT2aG-2" target="S2c5dp2w3q7TUs9QFYM--7" edge="1">
          <mxGeometry relative="1" as="geometry">
            <mxPoint x="75" y="370" as="sourcePoint" />
            <mxPoint x="345" y="370" as="targetPoint" />
          </mxGeometry>
        </mxCell>
        <mxCell id="S2c5dp2w3q7TUs9QFYM--41" value="Ответ" style="verticalAlign=bottom;endArrow=block;shadow=0;strokeWidth=1;labelBackgroundColor=#FFFFFF;labelBorderColor=none;dashed=1;fontStyle=0;fontSize=14;" parent="1" source="S2c5dp2w3q7TUs9QFYM--7" target="3nuBFxr9cyL0pnOWT2aG-2" edge="1">
          <mxGeometry relative="1" as="geometry">
            <mxPoint x="480" y="400" as="sourcePoint" />
            <mxPoint x="220" y="400" as="targetPoint" />
            <Array as="points">
              <mxPoint x="385" y="400" />
            </Array>
          </mxGeometry>
        </mxCell>
        <mxCell id="S2c5dp2w3q7TUs9QFYM--48" value="" style="points=[];perimeter=orthogonalPerimeter;shadow=0;strokeWidth=1;fillColor=#e1d5e7;strokeColor=#9673a6;fontStyle=0;fontSize=14;" parent="1" vertex="1">
          <mxGeometry x="345" y="429.31" width="10" height="30" as="geometry" />
        </mxCell>
        <mxCell id="S2c5dp2w3q7TUs9QFYM--49" value="Запрос" style="verticalAlign=bottom;endArrow=block;shadow=0;strokeWidth=1;labelBackgroundColor=#FFFFFF;labelBorderColor=none;fontStyle=0;fontSize=14;" parent="1" target="S2c5dp2w3q7TUs9QFYM--48" edge="1">
          <mxGeometry relative="1" as="geometry">
            <mxPoint x="75" y="429.31" as="sourcePoint" />
            <mxPoint x="345" y="429.31" as="targetPoint" />
          </mxGeometry>
        </mxCell>
        <mxCell id="S2c5dp2w3q7TUs9QFYM--50" value="" style="points=[];perimeter=orthogonalPerimeter;shadow=0;strokeWidth=1;fillColor=#d5e8d4;strokeColor=#82b366;fontStyle=0;fontSize=14;" parent="1" vertex="1">
          <mxGeometry x="205" y="459.31" width="10" height="30" as="geometry" />
        </mxCell>
        <mxCell id="S2c5dp2w3q7TUs9QFYM--51" value="Ответ" style="verticalAlign=bottom;endArrow=block;shadow=0;strokeWidth=1;labelBackgroundColor=#FFFFFF;labelBorderColor=none;dashed=1;fontStyle=0;fontSize=14;" parent="1" target="S2c5dp2w3q7TUs9QFYM--50" edge="1">
          <mxGeometry relative="1" as="geometry">
            <mxPoint x="345" y="459.31" as="sourcePoint" />
            <mxPoint x="215" y="459.31" as="targetPoint" />
            <Array as="points">
              <mxPoint x="250" y="459.31" />
            </Array>
          </mxGeometry>
        </mxCell>
        <mxCell id="S2c5dp2w3q7TUs9QFYM--52" value="Ответ" style="verticalAlign=bottom;endArrow=block;shadow=0;strokeWidth=1;labelBackgroundColor=#FFFFFF;labelBorderColor=none;dashed=1;fontStyle=0;fontSize=14;" parent="1" edge="1">
          <mxGeometry relative="1" as="geometry">
            <mxPoint x="205" y="489.31" as="sourcePoint" />
            <mxPoint x="75" y="489.31" as="targetPoint" />
            <Array as="points">
              <mxPoint x="110" y="489.31" />
            </Array>
          </mxGeometry>
        </mxCell>
        <mxCell id="S2c5dp2w3q7TUs9QFYM--53" value="Prod" style="shape=umlLifeline;perimeter=lifelinePerimeter;container=1;collapsible=0;recursiveResize=0;shadow=0;strokeWidth=1;fillColor=#f5f5f5;strokeColor=#666666;fontColor=#333333;fontStyle=0;fontSize=14;" parent="1" vertex="1">
          <mxGeometry x="720" y="80" width="100" height="560" as="geometry" />
        </mxCell>
        <mxCell id="S2c5dp2w3q7TUs9QFYM--57" value="" style="points=[];perimeter=orthogonalPerimeter;shadow=0;strokeWidth=1;fillColor=#f5f5f5;strokeColor=#666666;fontColor=#333333;fontStyle=0;fontSize=14;" parent="S2c5dp2w3q7TUs9QFYM--53" vertex="1">
          <mxGeometry x="45" y="486" width="10" height="30" as="geometry" />
        </mxCell>
        <mxCell id="S2c5dp2w3q7TUs9QFYM--54" value="Запрос" style="verticalAlign=bottom;endArrow=block;shadow=0;strokeWidth=1;labelBackgroundColor=#FFFFFF;labelBorderColor=none;fontStyle=0;fontSize=14;" parent="1" source="3nuBFxr9cyL0pnOWT2aG-2" target="S2c5dp2w3q7TUs9QFYM--42" edge="1">
          <mxGeometry relative="1" as="geometry">
            <mxPoint x="70" y="520" as="sourcePoint" />
            <mxPoint x="600" y="520" as="targetPoint" />
          </mxGeometry>
        </mxCell>
        <mxCell id="S2c5dp2w3q7TUs9QFYM--56" value="Запрос" style="verticalAlign=bottom;endArrow=block;shadow=0;strokeWidth=1;labelBackgroundColor=#FFFFFF;labelBorderColor=none;fontStyle=0;fontSize=14;" parent="1" source="S2c5dp2w3q7TUs9QFYM--42" target="S2c5dp2w3q7TUs9QFYM--55" edge="1">
          <mxGeometry relative="1" as="geometry">
            <mxPoint x="620" y="550" as="sourcePoint" />
            <mxPoint x="490" y="550" as="targetPoint" />
            <Array as="points">
              <mxPoint x="525" y="550" />
            </Array>
          </mxGeometry>
        </mxCell>
        <mxCell id="S2c5dp2w3q7TUs9QFYM--58" value="Отправка кода" style="verticalAlign=bottom;endArrow=block;shadow=0;strokeWidth=1;labelBackgroundColor=#FFFFFF;labelBorderColor=none;fontStyle=0;fontSize=14;" parent="1" edge="1" source="S2c5dp2w3q7TUs9QFYM--55">
          <mxGeometry relative="1" as="geometry">
            <mxPoint x="495" y="580" as="sourcePoint" />
            <mxPoint x="765" y="580" as="targetPoint" />
          </mxGeometry>
        </mxCell>
        <mxCell id="S2c5dp2w3q7TUs9QFYM--28" value="Запрос" style="verticalAlign=bottom;endArrow=block;shadow=0;strokeWidth=1;labelBackgroundColor=#FFFFFF;labelBorderColor=none;fontStyle=0;fontSize=14;" parent="1" source="ON78CiNrO1nDwPZ4DCJo-1" target="3nuBFxr9cyL0pnOWT2aG-6" edge="1">
          <mxGeometry relative="1" as="geometry">
            <mxPoint x="220" y="160" as="sourcePoint" />
            <mxPoint x="350" y="160" as="targetPoint" />
            <Array as="points">
              <mxPoint x="270" y="160" />
              <mxPoint x="290" y="160" />
            </Array>
          </mxGeometry>
        </mxCell>
        <mxCell id="ON78CiNrO1nDwPZ4DCJo-2" value="Запрос" style="verticalAlign=bottom;endArrow=block;shadow=0;strokeWidth=1;labelBackgroundColor=#FFFFFF;labelBorderColor=none;fontStyle=0;fontSize=14;" edge="1" parent="1">
          <mxGeometry relative="1" as="geometry">
            <mxPoint x="355" y="170" as="sourcePoint" />
            <mxPoint x="485" y="170" as="targetPoint" />
            <Array as="points">
              <mxPoint x="410" y="170" />
              <mxPoint x="430" y="170" />
            </Array>
          </mxGeometry>
        </mxCell>
        <mxCell id="ON78CiNrO1nDwPZ4DCJo-3" value="Ответ" style="verticalAlign=bottom;endArrow=block;shadow=0;strokeWidth=1;labelBackgroundColor=#FFFFFF;labelBorderColor=none;dashed=1;fontStyle=0;fontSize=14;" edge="1" parent="1" source="ON78CiNrO1nDwPZ4DCJo-1" target="3nuBFxr9cyL0pnOWT2aG-2">
          <mxGeometry relative="1" as="geometry">
            <mxPoint x="355" y="220" as="sourcePoint" />
            <mxPoint x="225" y="220" as="targetPoint" />
            <Array as="points">
              <mxPoint x="130" y="220" />
              <mxPoint x="100" y="220" />
            </Array>
          </mxGeometry>
        </mxCell>
      </root>
    </mxGraphModel>
  </diagram>
</mxfile>
